<?xml version="1.0" ?><svg id="Address_Book" style="enable-background:new 0 0 32 32;" version="1.1" viewBox="0 0 32 32" xml:space="preserve" xmlns="http://www.w3.org/2000/svg" xmlns:xlink="http://www.w3.org/1999/xlink"><style type="text/css">
	.st0{fill:#55C1FA;}
	.st1{fill:#D2ECFA;}
	.st2{fill:#393B3D;}
</style><g><path class="st0" d="M25.5,17c-0.553,0-1-0.448-1-1s0.447-1,1-1h1v-4.5h-1c-0.553,0-1-0.448-1-1s0.447-1,1-1h1V6   c0-2.206-1.794-4-4-4h-18c-0.552,0-1,0.448-1,1v26c0,0.553,0.448,1,1,1h18c2.206,0,4-1.794,4-4v-2.5h-1c-0.553,0-1-0.447-1-1   s0.447-1,1-1h1V17H25.5z M11.496,16.326h7.008c1.721,0,3.121,1.4,3.121,3.121v4.365c0,0.553-0.447,1-1,1H9.375   c-0.552,0-1-0.447-1-1v-4.365C8.375,17.727,9.775,16.326,11.496,16.326z M10.715,11.4c0-2.323,1.862-4.212,4.15-4.212   c2.288,0,4.149,1.89,4.149,4.212c0,2.323-1.861,4.213-4.149,4.213C12.577,15.613,10.715,13.723,10.715,11.4z"/><path class="st1" d="M8.375,19.447v4.365c0,0.553,0.448,1,1,1h11.25c0.553,0,1-0.447,1-1v-4.365c0-1.721-1.4-3.121-3.121-3.121   h-7.008C9.775,16.326,8.375,17.727,8.375,19.447z"/><path class="st1" d="M14.865,15.613c2.288,0,4.149-1.89,4.149-4.213c0-2.323-1.861-4.212-4.149-4.212   c-2.289,0-4.15,1.89-4.15,4.212C10.715,13.723,12.577,15.613,14.865,15.613z"/><path class="st2" d="M24.5,16c0,0.552,0.447,1,1,1h1h1c0.553,0,1-0.448,1-1s-0.447-1-1-1h-1h-1C24.947,15,24.5,15.448,24.5,16z"/><path class="st2" d="M24.5,9.5c0,0.552,0.447,1,1,1h1h1c0.553,0,1-0.448,1-1s-0.447-1-1-1h-1h-1C24.947,8.5,24.5,8.948,24.5,9.5z"/><path class="st2" d="M24.5,22.5c0,0.553,0.447,1,1,1h1h1c0.553,0,1-0.447,1-1s-0.447-1-1-1h-1h-1   C24.947,21.5,24.5,21.947,24.5,22.5z"/></g></svg>